<?xml version="1.0" encoding="UTF-8" standalone="no" ?>
<!DOCTYPE svg PUBLIC "-//W3C//DTD SVG 1.1//EN" "http://www.w3.org/Graphics/SVG/1.1/DTD/svg11.dtd">
<svg xmlns="http://www.w3.org/2000/svg" xmlns:xlink="http://www.w3.org/1999/xlink" version="1.1" width="500" height="500" viewBox="0 0 500 500" xml:space="preserve">
<desc>Created with Fabric.js 5.2.4</desc>
<defs>
</defs>
<g transform="matrix(1 0 0 1 250 250)" id="bbf0fff8-faa0-43c4-ada1-8155589f82b1"  >
<rect style="stroke: none; stroke-width: 1; stroke-dasharray: none; stroke-linecap: butt; stroke-dashoffset: 0; stroke-linejoin: miter; stroke-miterlimit: 4; fill: rgb(255,255,255); fill-rule: nonzero; opacity: 1; visibility: hidden;" vector-effect="non-scaling-stroke"  x="-250" y="-250" rx="0" ry="0" width="500" height="500" />
</g>
<g transform="matrix(Infinity NaN NaN Infinity 0 0)" id="232d6269-24ff-4b55-b022-7324ef666a65"  >
</g>
<g transform="matrix(5.2 0 0 5.2 251.62 260.61)"  >
<path style="stroke: rgb(63,255,0); stroke-width: 18; stroke-dasharray: none; stroke-linecap: butt; stroke-dashoffset: 0; stroke-linejoin: miter; stroke-miterlimit: 4; fill: rgb(31,70,255); fill-rule: nonzero; opacity: 1;" vector-effect="non-scaling-stroke"  transform=" translate(-50, -50)" d="M 94.75 50 C 94.75 56.213 89.514 61.25 83.054 61.25 L 16.946 61.25 C 10.486 61.25 5.25 56.213 5.25 50 L 5.25 50 C 5.25 43.787 10.486 38.75 16.945999999999998 38.75 L 83.053 38.75 C 89.514 38.75 94.75 43.787 94.75 50 L 94.75 50 z" stroke-linecap="round" />
</g>
<g transform="matrix(1.19 0 0 1.19 253.83 261.09)" style="" id="ccb06456-f30a-4e2d-849c-493436843146"  >
		<text xml:space="preserve" font-family="Lato" font-size="52" font-style="normal" font-weight="400" style="stroke: none; stroke-width: 1; stroke-dasharray: none; stroke-linecap: butt; stroke-dashoffset: 0; stroke-linejoin: miter; stroke-miterlimit: 4; fill: rgb(255,0,0); fill-rule: nonzero; opacity: 1; white-space: pre;" ><tspan x="-186.34" y="16.34" >|||\\\||\\\|||\\\||||||</tspan></text>
</g>
<g transform="matrix(1.19 0 0 1.19 45.52 254.05)" style="" id="1246e402-2577-48cb-a9d7-2c26fd4f1b90"  >
		<text xml:space="preserve" font-family="Raleway" font-size="106" font-style="normal" font-weight="900" style="stroke: none; stroke-width: 1; stroke-dasharray: none; stroke-linecap: butt; stroke-dashoffset: 0; stroke-linejoin: miter; stroke-miterlimit: 4; fill: rgb(255,255,255); fill-rule: nonzero; opacity: 1; white-space: pre;" ><tspan x="138.37" y="3.35" >s</tspan><tspan x="178.23" y="3.35" >a</tspan><tspan x="228.47" y="3.35" >c</tspan><tspan x="275.85" y="3.35" >o</tspan><tspan x="-26.57" y="63.24" >M</tspan><tspan x="49.75" y="63.24" >e</tspan><tspan x="101.06" y="63.24" >a</tspan><tspan x="151.3" y="63.24" >s</tspan><tspan x="191.16" y="63.24" >u</tspan><tspan x="245.54" y="63.24" >r</tspan><tspan x="276.38" y="63.24" >e</tspan></text>
</g>
</svg>